PathFileType	4	(X/Y/Z)	C:/Users/opensim2020/Desktop/walking_exp_matlab/subject03_walking11_straight_01.trc																																																																																																																																								
DataRate	CameraRate	NumFrames	NumMarkers	Units	OrigDataRate	OrigDataStartFrame	OrigNumFrames																																																																																																																																				
100	100	8	46	mm	100	861	454																																																																																																																																				
Frame#	Time	LFHD			RFHD			LBHD			RBHD			C7			T10			CLAV			STRN			RBAK			LSHO			LUPA			LELB			LFRM			LWRA			LWRB			LFIN			RSHO			RUPA			RELB			RFRM			RWRA			RWRB			RFIN			LASI			RASI			LPSI			RPSI			LTHI			LKNE			LTIB			LANK			LHEE			LTOE			RTHI			RKNE			RTIB			RANK			RHEE			RTOE			*39			*40			*41			*42			*43			*44			*45		
		X1	Y1	Z1	X2	Y2	Z2	X3	Y3	Z3	X4	Y4	Z4	X5	Y5	Z5	X6	Y6	Z6	X7	Y7	Z7	X8	Y8	Z8	X9	Y9	Z9	X10	Y10	Z10	X11	Y11	Z11	X12	Y12	Z12	X13	Y13	Z13	X14	Y14	Z14	X15	Y15	Z15	X16	Y16	Z16	X17	Y17	Z17	X18	Y18	Z18	X19	Y19	Z19	X20	Y20	Z20	X21	Y21	Z21	X22	Y22	Z22	X23	Y23	Z23	X24	Y24	Z24	X25	Y25	Z25	X26	Y26	Z26	X27	Y27	Z27	X28	Y28	Z28	X29	Y29	Z29	X30	Y30	Z30	X31	Y31	Z31	X32	Y32	Z32	X33	Y33	Z33	X34	Y34	Z34	X35	Y35	Z35	X36	Y36	Z36	X37	Y37	Z37	X38	Y38	Z38	X39	Y39	Z39	X40	Y40	Z40	X41	Y41	Z41	X42	Y42	Z42	X43	Y43	Z43	X44	Y44	Z44	X45	Y45	Z45	X46	Y46	Z46
																																																																																																																																											
228	2.27	-62.41505	1613.43994	1367.01062	-60.89423	1620.85742	1500.47485	-189.9371	1567.84021	1375.87891	-183.24657	1575.2666	1506.54858	-217.15363	1414.27185	1442.45874	-266.00937	1103.7384	1444.87695	-99.09678	1332.48328	1433.02686	-65.18301	1165.01099	1430.67188	-271.25119	1246.17273	1547.56409	-159.14505	1369.89111	1280.64417	-211.98604	1176.09216	1218.47351	-228.93192	1053.61658	1206.90295	-209.40225	925.18439	1203.99414	-184.51317	808.32318	1231.78748	-221.79611	812.12872	1190.05615	-204.39865	729.53583	1197.98364	-128.48801	1361.91431	1594.73853	-90.96837	1147.46033	1671.91357	-48.90501	1042.46204	1681.32654	3.71671	916.16016	1673.09802	48.33287	832.60126	1625.53003	33.086	820.69867	1675.93909	73.80109	761.0274	1657.66162	-102.37417	934.95282	1326.3656	-105.44889	934.24097	1563.43848	-266.45908	953.802	1371.69971	-266.06424	968.21643	1521.35864	-100.34907	633.80249	1275.77356	-36.51645	470.09271	1320.95105	-27.09305	280.17029	1315.75696	27.75317	74.99281	1346.80957	-1.30396	33.4583	1387.47559	181.34021	66.05177	1364.13159	-195.65758	644.51886	1595.95447	-212.44083	465.45264	1558.04468	-299.10736	291.90784	1555.98645	-370.00146	87.07288	1499.93237	-417.32278	62.88339	1447.54175	-232.94867	36.26088	1484.37817	-146.9169	1672.50696	1418.03088	NaN	NaN	NaN	NaN	NaN	NaN	NaN	NaN	NaN	NaN	NaN	NaN	NaN	NaN	NaN	NaN	NaN	NaN
229	2.28	-55.39199	1612.92297	1366.37402	-53.9758	1620.50989	1499.80396	-182.87474	1567.5249	1375.02197	-176.38539	1575.03931	1505.76563	-210.19832	1413.93982	1441.59265	-258.80264	1103.26196	1443.70886	-91.94373	1332.13525	1432.55859	-57.81854	1165.02478	1430.69885	-264.47968	1245.78577	1546.59119	-151.65442	1369.35986	1279.927	-204.16391	1175.40137	1217.49194	-221.06789	1052.84741	1206.38184	-201.66768	924.42267	1203.61792	-177.19731	807.46265	1231.51587	-214.37672	811.39063	1189.67834	-197.34221	728.71692	1197.88428	-121.94823	1361.69336	1594.11047	-84.50826	1147.07239	1671.04968	-42.50904	1042.06519	1680.40149	10.08081	915.70667	1672.01514	54.60044	832.21741	1624.46204	39.39996	820.2749	1674.82129	79.96847	760.47058	1656.4115	-94.54868	934.38336	1326.2738	-98.99487	933.90009	1563.24634	-258.6893	953.44476	1370.42285	-259.35629	967.76208	1520.10291	-93.25462	633.08026	1276.31897	-30.17448	469.44626	1321.66467	-20.58024	279.43793	1315.96521	34.13681	74.15057	1347.02979	4.67085	32.54423	1387.09961	187.57944	65.75283	1365.33533	-190.39467	644.36432	1595.7998	-207.76015	465.27151	1558.35242	-296.28406	292.53378	1556.11731	-369.35315	88.28326	1500.23914	-416.88437	64.6881	1447.85632	-232.74809	36.20546	1484.55701	-139.96658	1672.04492	1416.88135	NaN	NaN	NaN	NaN	NaN	NaN	NaN	NaN	NaN	NaN	NaN	NaN	NaN	NaN	NaN	NaN	NaN	NaN
230	2.29	-48.33529	1612.40613	1365.12476	-47.03328	1620.21423	1499.08179	-175.83716	1567.2196	1374.18591	-169.50056	1574.82349	1504.92664	-203.14281	1413.45593	1440.61658	-251.63269	1102.91797	1442.60718	-84.72777	1331.93738	1432.09961	-50.49429	1164.72437	1430.45032	-257.61917	1245.46509	1545.51868	-143.99362	1368.96484	1279.19824	-195.83838	1174.76648	1216.9519	-212.53461	1052.37463	1205.61365	-193.66054	923.64825	1203.11792	-169.80182	806.87335	1231.34937	-206.62125	810.75922	1189.13538	-190.09154	727.94568	1197.63953	-115.35497	1361.49939	1593.44055	-77.96614	1146.85608	1670.22827	-36.11341	1041.71716	1679.48938	16.25084	915.29285	1671.09338	60.626	831.60577	1623.33789	45.43714	819.79718	1673.82617	85.90742	759.86865	1655.2478	-86.47379	933.84009	1326.09082	-92.43188	933.52948	1563.07092	-250.82845	953.17651	1369.24817	-252.53029	967.38373	1518.88562	-85.33685	632.71704	1276.33728	-23.69197	468.52029	1322.25232	-14.81962	278.55136	1316.14954	38.93652	73.05603	1347.41589	9.01937	31.72979	1387.14844	192.10883	64.14296	1366.79358	-184.95375	644.14685	1595.64221	-202.77983	465.10114	1558.65234	-293.17044	293.12357	1556.36829	-368.60129	89.5675	1500.55579	-416.35434	66.62879	1448.13403	-232.54677	36.11823	1484.74939	-132.91797	1671.54126	1415.73145	NaN	NaN	NaN	NaN	NaN	NaN	NaN	NaN	NaN	NaN	NaN	NaN	NaN	NaN	NaN	NaN	NaN	NaN
231	2.3	-41.18849	1612.09253	1364.36755	-40.07848	1619.93909	1498.33716	-168.65765	1566.96924	1373.26294	-162.53616	1574.66296	1504.02319	-195.96362	1413.01416	1439.48267	-244.11165	1102.39587	1441.35291	-77.45435	1331.70837	1431.53784	-42.96149	1164.54065	1430.13489	-250.76195	1245.08289	1544.36157	-136.16673	1368.5575	1278.35559	-187.67349	1174.25916	1215.84973	-204.04558	1051.74829	1204.95398	-185.4827	923.02789	1202.63049	-162.30066	805.98267	1231.04065	-198.73119	810.10803	1188.5437	-182.70146	727.21887	1197.28931	-108.65527	1361.3103	1592.7345	-71.46652	1146.57568	1669.37231	-29.93291	1041.30322	1678.54175	22.28018	914.83868	1670.17126	66.78448	831.37402	1622.55957	51.32265	819.2569	1672.85938	91.57729	759.15076	1654.276	-78.13525	933.56232	1325.98059	-85.70241	933.10522	1562.83765	-242.77574	953.02466	1368.07336	-245.41168	967.00342	1517.67334	-77.23759	632.49579	1276.6427	-17.31775	467.68393	1322.54272	-9.80426	277.50119	1316.42908	42.13346	71.70071	1347.97363	11.13889	31.66947	1387.10132	194.8546	61.11639	1368.55249	-179.38083	643.96069	1595.38293	-197.63501	464.87827	1558.93469	-290.09711	293.78915	1556.41821	-367.84149	91.04291	1500.83203	-415.74963	68.63725	1448.31299	-232.31137	36.02309	1484.93921	-125.69342	1671.58752	1415.09485	NaN	NaN	NaN	NaN	NaN	NaN	NaN	NaN	NaN	NaN	NaN	NaN	NaN	NaN	NaN	NaN	NaN	NaN
232	2.31	-33.9208	1611.84045	1363.65747	-33.17871	1619.74731	1497.59204	-161.47842	1566.75781	1372.32642	-155.61836	1574.54773	1503.08533	-188.96405	1412.80457	1438.33948	-236.51137	1101.95129	1440.17615	-70.142	1331.42236	1430.77209	-35.38261	1164.39453	1429.78821	-243.8623	1244.70032	1543.13757	-128.20775	1368.19666	1277.51538	-179.05785	1173.80811	1215.00818	-195.17001	1051.25195	1204.10022	-177.06546	922.36566	1201.95056	-154.79149	805.19427	1230.83911	-190.69238	809.53735	1187.82666	-175.14284	726.54718	1196.83337	-102.02357	1361.16895	1591.94067	-65.20801	1146.2417	1668.37793	-23.84891	1040.94055	1677.68372	28.11854	914.32465	1669.35864	72.51592	830.58221	1621.672	56.9645	818.68756	1672.05408	96.98432	758.3938	1653.38843	-69.60266	933.25476	1325.76904	-78.88088	932.73871	1562.60315	-234.54633	952.91132	1366.88782	-238.27159	966.6463	1516.46411	-68.84722	632.2301	1277.08337	-10.88235	466.92004	1322.92126	-5.62814	276.23859	1316.95313	43.87366	70.19426	1348.91541	11.69672	30.98244	1387.78137	196.10933	56.2881	1370.08618	-173.71318	643.76361	1595.14795	-192.35538	464.64294	1559.13611	-287.11343	294.59451	1556.22986	-366.95883	92.6094	1501.00525	-415.05365	70.84108	1448.35474	-232.11967	36.00169	1485.09448	-118.63362	1671.36084	1414.11462	NaN	NaN	NaN	NaN	NaN	NaN	NaN	NaN	NaN	NaN	NaN	NaN	NaN	NaN	NaN	NaN	NaN	NaN
233	2.32	-26.70671	1611.62207	1362.9657	-26.23087	1619.65173	1496.79932	-154.27432	1566.57141	1371.32239	-148.71973	1574.41248	1502.11548	-181.74594	1412.37183	1437.07776	-228.71928	1101.53003	1438.84546	-62.66586	1331.28406	1430.20276	-27.6433	1164.32434	1429.45032	-236.60117	1244.276	1541.66431	-120.18462	1367.91394	1276.55005	-170.07605	1173.3396	1214.02795	-186.37112	1050.59473	1203.25696	-168.50974	921.85443	1201.26599	-148.3869	803.81628	1231.68359	-182.34216	808.97791	1187.0603	-167.37862	725.91125	1196.17297	-95.33632	1361.08484	1591.13171	-58.83833	1146.01196	1667.46753	-17.83304	1040.53223	1676.80859	33.85435	913.79132	1668.56848	78.26218	830.16486	1621.08191	62.43938	818.03802	1671.26868	102.2431	757.55139	1652.69788	-61.07513	932.94312	1325.6001	-71.83141	932.28156	1562.32935	-226.2448	952.90912	1365.53967	-231.01566	966.39386	1515.18164	-60.2029	632.16486	1277.42798	-4.75631	466.06027	1323.13562	-1.85874	275.1636	1317.70959	45.16679	69.138	1349.80286	11.78493	30.78565	1388.46948	196.91743	49.0894	1371.7749	-167.79298	643.55762	1594.78625	-186.76241	464.36856	1559.33154	-283.67844	295.3577	1556.27905	-365.99017	94.27126	1501.18323	-414.2966	73.33797	1448.44714	-232.02591	35.72063	1485.21582	-112.20352	1670.64148	1412.46582	NaN	NaN	NaN	NaN	NaN	NaN	NaN	NaN	NaN	NaN	NaN	NaN	NaN	NaN	NaN	NaN	NaN	NaN
234	2.33	-19.40473	1611.72937	1362.39233	-19.23455	1619.82336	1496.00293	-147.00169	1566.46033	1370.29419	-141.70033	1574.4585	1501.08484	-174.53014	1412.25623	1435.77844	-220.69093	1101.29211	1437.57178	-55.17211	1331.37634	1429.45251	-19.83883	1164.50964	1429.08362	-229.53116	1244.0376	1540.09888	-111.98416	1367.72229	1275.55908	-161.32553	1172.88391	1213.19812	-177.09749	1050.2384	1202.24805	-159.72298	921.26355	1200.45007	-140.12994	803.30103	1230.9895	-173.94141	808.48676	1186.13904	-159.43269	725.2821	1195.47449	-88.56707	1361.06433	1590.31421	-52.50743	1145.78442	1666.50244	-11.86244	1040.16345	1676.01624	39.42646	913.2583	1667.91406	83.73648	829.37646	1620.4375	67.68682	817.36627	1670.58997	107.20328	756.67542	1652.03723	-52.54499	932.88806	1325.41797	-64.64793	931.84625	1562.07483	-218.04459	953.27997	1364.20593	-223.6683	966.20001	1513.93188	-51.68239	632.71002	1277.69849	0.87942	465.66745	1323.33154	2.13877	274.67148	1318.55164	47.45692	68.96756	1350.13574	12.60166	31.75672	1388.52124	198.25691	42.81332	1373.68591	-161.61266	643.30182	1594.44958	-180.80354	464.16782	1559.34863	-279.91785	296.26428	1556.17639	-364.84045	96.23755	1501.3241	-413.31906	76.06358	1448.56445	-231.81102	35.73346	1485.40198	-104.64991	1670.85608	1411.48706	NaN	NaN	NaN	NaN	NaN	NaN	NaN	NaN	NaN	NaN	NaN	NaN	NaN	NaN	NaN	NaN	NaN	NaN
235	2.34	-12.02788	1612.07788	1361.85779	-12.20527	1620.27795	1495.14209	-139.66402	1566.65259	1369.21619	-134.61444	1574.77014	1500.04346	-167.19693	1412.35486	1434.48877	-212.83395	1101.3241	1436.37085	-47.63376	1331.68481	1428.76978	-12.02368	1164.88159	1428.6604	-222.50189	1244.0282	1538.43542	-103.7187	1367.62463	1274.50134	-152.36256	1172.52319	1212.12805	-167.77528	1049.87549	1201.12231	-150.69827	920.82867	1199.55774	-130.63846	803.15613	1229.18494	-165.24594	808.10626	1185.14148	-151.28682	724.85938	1194.61047	-81.73347	1361.2334	1589.53699	-46.28095	1145.69934	1665.56055	-6.00164	1039.84631	1675.20129	44.78226	912.74432	1667.23108	89.01743	828.74042	1619.97803	72.70592	816.76996	1670.02795	111.96438	755.80914	1651.53406	-43.78861	933.23242	1325.14722	-57.39244	931.55554	1561.78113	-209.73807	953.8938	1362.70276	-216.03145	966.08826	1512.62415	-43.32953	633.6709	1277.87048	6.16023	465.51755	1323.5127	6.5945	274.72333	1318.57703	50.5529	68.8503	1350.27197	14.23892	32.76283	1387.99268	201.61417	41.32603	1374.80408	-155.12578	643.20618	1594.00769	-174.44508	464.00476	1559.34009	-275.89667	297.31204	1556.08569	-363.57712	98.46565	1501.43237	-412.24246	79.139	1448.53333	-231.57257	35.59266	1485.4259	-97.41943	1671.04358	1410.50525	NaN	NaN	NaN	NaN	NaN	NaN	NaN	NaN	NaN	NaN	NaN	NaN	NaN	NaN	NaN	NaN	NaN	NaN
